<svg width="160" height="44" viewBox="0 0 160 44" fill="none" xmlns="http://www.w3.org/2000/svg">
<rect width="160" height="44" fill="#1E1E1E"/>
<rect width="160" height="44" fill="white"/>
<g filter="url(#filter0_b_0_1)">
<path d="M9.16 31.24C9.16 32.8133 7.62667 33.6 4.56 33.6C3.89333 33.6 3.49333 33.2667 3.36 32.6C3.25333 31.9067 3.2 30.9467 3.2 29.72C3.2 27.1333 3.72 23.9333 4.76 20.12C6.49333 13.8267 8.34667 10.12 10.32 9C10.5867 8.84 10.88 8.76 11.2 8.76C11.52 8.76 11.68 9.28 11.68 10.32C11.68 11.36 11.6267 12.28 11.52 13.08C11.3067 14.68 10.92 16.7467 10.36 19.28C9.82667 21.8133 9.56 23.3067 9.56 23.76L9.16 31.24ZM11.88 20.48C11.88 20.1333 12.0667 19.9067 12.44 19.8C12.84 19.6933 13.3333 19.6 13.92 19.52C14.5067 19.4133 15.1467 19.2667 15.84 19.08C16.5333 18.8933 17.1733 18.5467 17.76 18.04C19.12 16.8667 19.8 14.9067 19.8 12.16C19.8 10.4 19.2 9.05333 18 8.12C16.8267 7.18667 15.12 6.72 12.88 6.72C10.6667 6.72 8.58667 7.18667 6.64 8.12C5.92 8.46667 5.26667 8.78667 4.68 9.08C4.12 9.37333 3.6 9.52 3.12 9.52C2.64 9.52 2.4 9.37333 2.4 9.08C2.4 8.62667 2.84 7.88 3.72 6.84C4.6 5.88 5.98667 4.98666 7.88 4.16C9.8 3.33333 11.8133 2.92 13.92 2.92C17.8933 2.89333 20.9867 3.82667 23.2 5.72C25.12 7.37333 26.08 9.52 26.08 12.16C26.08 14.7733 25.1333 17.12 23.24 19.2C21.3467 21.2533 18.9733 22.28 16.12 22.28C13.2933 22.28 11.88 21.68 11.88 20.48ZM35.0122 28.64C37.0922 28.64 39.1055 27.8133 41.0522 26.16C41.7722 25.5467 42.3589 24.9867 42.8122 24.48C43.2655 23.9467 43.6122 23.68 43.8522 23.68C44.2255 23.68 44.4122 24.0533 44.4122 24.8C44.4122 25.5467 44.2122 26.3867 43.8122 27.32C43.4122 28.2267 42.7455 29.12 41.8122 30C39.5189 32.16 36.3722 33.24 32.3722 33.24C29.1989 33.24 27.0389 32.0933 25.8922 29.8C25.4922 29 25.2922 27.8533 25.2922 26.36C25.2922 24.8667 25.5855 23.32 26.1722 21.72C26.7589 20.0933 27.5322 18.6933 28.4922 17.52C29.4789 16.3467 30.6122 15.44 31.8922 14.8C33.1722 14.1333 34.5322 13.8 35.9722 13.8C37.4389 13.8 38.5589 14.16 39.3322 14.88C40.1322 15.6 40.5322 16.5333 40.5322 17.68C40.5322 18.8267 40.2389 19.7733 39.6522 20.52C39.0922 21.24 38.3589 21.8533 37.4522 22.36C36.5455 22.84 35.5322 23.28 34.4122 23.68C33.3189 24.0533 32.2389 24.48 31.1722 24.96V25.96C31.1989 26.92 31.5989 27.6 32.3722 28C33.1455 28.4 34.0255 28.6133 35.0122 28.64ZM34.3322 17.36C32.9455 17.36 31.9855 18.9733 31.4522 22.2C32.0122 21.8267 32.5322 21.4933 33.0122 21.2C33.5189 20.9067 33.9589 20.6267 34.3322 20.36C35.1322 19.7733 35.5455 19.1067 35.5722 18.36C35.5722 17.6933 35.1589 17.36 34.3322 17.36ZM47.7309 13.04C48.6909 13.04 49.5976 13.96 50.4509 15.8C51.7043 14.4933 53.2509 13.84 55.0909 13.84C56.9576 13.84 58.3576 14.2533 59.2909 15.08C60.2243 15.88 60.6909 17.0267 60.6909 18.52C60.6909 19.9867 60.4909 21.48 60.0909 23C59.7176 24.52 59.4376 25.6133 59.2509 26.28C59.0909 26.92 59.0109 27.4533 59.0109 27.88C59.0109 28.3067 59.1576 28.52 59.4509 28.52C59.8509 28.52 60.3443 28.2667 60.9309 27.76C61.5176 27.2533 62.1043 26.7067 62.6909 26.12C63.2776 25.5067 63.8109 24.9467 64.2909 24.44C64.7976 23.9333 65.1443 23.68 65.3309 23.68C65.7043 23.68 65.8909 24.1333 65.8909 25.04C65.8909 26.9067 64.9709 28.7067 63.1309 30.44C60.0376 32.2533 58.0643 33.16 57.2109 33.16C57.1309 33.16 57.0776 33.1467 57.0509 33.12C54.9176 33.12 53.8509 31.4133 53.8509 28C53.8509 26.5333 53.9843 25.1867 54.2509 23.96C54.5443 22.7333 54.7576 21.84 54.8909 21.28C55.0243 20.72 55.0909 20.1467 55.0909 19.56C55.0909 18.6 54.5309 18.12 53.4109 18.12C52.3176 18.12 51.2643 18.9467 50.2509 20.6C49.2643 22.2267 48.5976 23.92 48.2509 25.68V25.96C48.2509 26.8667 48.3843 27.8 48.6509 28.76C48.9443 29.72 49.0909 30.3867 49.0909 30.76C49.0909 31.6667 47.9576 32.56 45.6909 33.44C45.3443 33.5733 45.0376 33.64 44.7709 33.64C44.1043 33.64 43.6376 33.2933 43.3709 32.6C43.1309 31.9067 43.0109 30.8267 43.0109 29.36C43.0109 25.5733 43.1576 22.84 43.4509 21.16C43.8509 18.6533 44.7576 16.32 46.1709 14.16C46.6509 13.4133 47.1709 13.04 47.7309 13.04ZM73.2153 28.64C75.2953 28.64 77.3086 27.8133 79.2553 26.16C79.9753 25.5467 80.562 24.9867 81.0153 24.48C81.4686 23.9467 81.8153 23.68 82.0553 23.68C82.4286 23.68 82.6153 24.0533 82.6153 24.8C82.6153 25.5467 82.4153 26.3867 82.0153 27.32C81.6153 28.2267 80.9486 29.12 80.0153 30C77.722 32.16 74.5753 33.24 70.5753 33.24C67.402 33.24 65.242 32.0933 64.0953 29.8C63.6953 29 63.4953 27.8533 63.4953 26.36C63.4953 24.8667 63.7886 23.32 64.3753 21.72C64.962 20.0933 65.7353 18.6933 66.6953 17.52C67.682 16.3467 68.8153 15.44 70.0953 14.8C71.3753 14.1333 72.7353 13.8 74.1753 13.8C75.642 13.8 76.762 14.16 77.5353 14.88C78.3353 15.6 78.7353 16.5333 78.7353 17.68C78.7353 18.8267 78.442 19.7733 77.8553 20.52C77.2953 21.24 76.562 21.8533 75.6553 22.36C74.7486 22.84 73.7353 23.28 72.6153 23.68C71.522 24.0533 70.442 24.48 69.3753 24.96V25.96C69.402 26.92 69.802 27.6 70.5753 28C71.3486 28.4 72.2286 28.6133 73.2153 28.64ZM72.5353 17.36C71.1486 17.36 70.1886 18.9733 69.6553 22.2C70.2153 21.8267 70.7353 21.4933 71.2153 21.2C71.722 20.9067 72.162 20.6267 72.5353 20.36C73.3353 19.7733 73.7486 19.1067 73.7753 18.36C73.7753 17.6933 73.362 17.36 72.5353 17.36ZM89.5341 33.12C85.7207 33.1467 83.1207 31.72 81.7341 28.84C81.2541 27.8267 81.0141 26.56 81.0141 25.04C81.0141 23.4933 81.1474 21.8533 81.4141 20.12C81.9474 16.6533 82.9741 13.4533 84.4941 10.52C85.2674 9.02667 86.1341 7.74667 87.0941 6.68C89.2007 4.33333 91.5474 3.17333 94.1341 3.2C95.2807 3.2 96.1741 3.52 96.8141 4.16C97.4807 4.77333 97.8141 5.66667 97.8141 6.84C97.8141 8.01333 97.4674 9.2 96.7741 10.4C96.0807 11.5733 95.1874 12.8 94.0941 14.08C93.0274 15.3333 91.8407 16.6533 90.5341 18.04C89.2274 19.4267 87.9474 20.9333 86.6941 22.56V24.16C86.6941 25.6533 87.0141 26.7467 87.6541 27.44C88.2941 28.1333 89.0407 28.48 89.8941 28.48C92.1874 28.48 94.2141 27.3467 95.9741 25.08C96.6941 24.1467 97.2407 23.68 97.6141 23.68C97.9874 23.68 98.1741 24.1333 98.1741 25.04C98.1741 25.9467 97.9207 26.88 97.4141 27.84C96.9341 28.7733 96.2941 29.64 95.4941 30.44C94.6941 31.2133 93.7741 31.8533 92.7341 32.36C91.6941 32.8667 90.6274 33.12 89.5341 33.12ZM91.6941 11.64C92.2541 10.9467 92.6941 10.32 93.0141 9.76C93.3341 9.2 93.4941 8.62666 93.4941 8.04C93.4941 7.42667 93.2807 7.12 92.8541 7.12C91.9207 7.12 90.8807 8.08 89.7341 10C88.6141 11.92 87.7741 14.44 87.2141 17.56C88.1207 16.1733 88.9474 15.0133 89.6941 14.08C90.4674 13.1467 91.1341 12.3333 91.6941 11.64ZM111.969 29.6C109.863 32.08 107.329 33.32 104.369 33.32C101.436 33.32 99.236 32.5733 97.7694 31.08C96.3027 29.56 95.5827 27.68 95.6094 25.44C95.5827 22.2667 96.5827 19.5333 98.6094 17.24C100.636 14.9467 103.289 13.8 106.569 13.8C108.063 13.8 109.263 13.9867 110.169 14.36C111.743 15 112.529 15.6 112.529 16.16C112.529 16.5867 111.423 16.8133 109.209 16.84C107.023 16.84 105.183 17.6 103.689 19.12C102.223 20.6133 101.489 22.5067 101.489 24.8C101.489 26 101.836 27.0133 102.529 27.84C103.249 28.64 104.249 29.04 105.529 29.04C106.836 29.04 107.916 28.7733 108.769 28.24C106.876 26.96 105.929 25.1067 105.929 22.68C105.903 21.4 106.356 20.24 107.289 19.2C108.249 18.1333 109.463 17.6 110.929 17.6C112.423 17.5733 113.489 17.9733 114.129 18.8C114.769 19.6267 115.089 20.6933 115.089 22C115.089 23.28 114.783 24.64 114.169 26.08H114.409C115.583 26.0533 116.596 25.64 117.449 24.84C117.769 24.52 118.036 24.24 118.249 24C118.489 23.76 118.729 23.64 118.969 23.64C119.343 23.64 119.529 24.08 119.529 24.96C119.529 26.5867 119.049 27.8133 118.089 28.64C117.129 29.44 116.063 29.84 114.889 29.84C113.743 29.84 112.769 29.76 111.969 29.6ZM111.609 24.96C112.063 24 112.289 23.0667 112.289 22.16C112.289 21.2533 111.996 20.8 111.409 20.8C111.169 20.8 110.969 20.9733 110.809 21.32C110.649 21.6667 110.569 22 110.569 22.32C110.569 23.3867 110.916 24.2667 111.609 24.96ZM125.088 16.24C126.475 14.6667 128.248 13.88 130.408 13.88C133.501 13.88 135.461 15.1333 136.288 17.64C136.528 18.3867 136.648 19.2133 136.648 20.12C136.648 22.1467 135.981 24.1467 134.648 26.12C133.341 28.0933 131.755 29.4267 129.888 30.12H130.368C132.315 30.12 134.288 29.4 136.288 27.96C137.568 27.0533 138.568 26.12 139.288 25.16C140.035 24.1733 140.595 23.68 140.968 23.68C141.341 23.68 141.528 24.1067 141.528 24.96C141.528 26.4533 140.888 27.96 139.608 29.48C137.688 31.6667 135.235 32.9467 132.248 33.32C130.088 33.56 128.555 33.6 127.648 33.44C126.741 33.28 126.048 33.08 125.568 32.84C124.528 32.3067 124.008 31.5067 124.008 30.44C124.008 29.8533 124.128 29.32 124.368 28.84C126.475 28.84 128.075 28.04 129.168 26.44C130.261 24.84 130.808 22.84 130.808 20.44C130.808 19.8533 130.595 19.3333 130.168 18.88C129.741 18.4 129.168 18.16 128.448 18.16C127.755 18.16 126.995 18.4667 126.168 19.08C125.341 19.6933 124.675 20.4667 124.168 21.4C123.688 22.3067 123.248 23.2133 122.848 24.12C122.448 25 122.128 26.12 121.888 27.48C121.461 29.9333 120.968 33.0267 120.408 36.76C119.875 40.52 119.541 42.5333 119.408 42.8C119.275 43.0933 119.075 43.36 118.808 43.6C118.541 43.84 118.261 43.96 117.968 43.96C117.435 43.96 116.995 43.8 116.648 43.48C115.688 42.6533 115.128 42.0133 114.968 41.56C114.808 41.1333 114.728 40.5733 114.728 39.88C114.728 37.2667 115.168 33.6 116.048 28.88C116.928 24.16 118.448 19.2533 120.608 14.16C120.928 13.4133 121.488 13.04 122.288 13.04C123.115 13.04 123.901 13.76 124.648 15.2C124.861 15.5733 125.008 15.92 125.088 16.24ZM148.84 28.64C150.92 28.64 152.934 27.8133 154.88 26.16C155.6 25.5467 156.187 24.9867 156.64 24.48C157.094 23.9467 157.44 23.68 157.68 23.68C158.054 23.68 158.24 24.0533 158.24 24.8C158.24 25.5467 158.04 26.3867 157.64 27.32C157.24 28.2267 156.574 29.12 155.64 30C153.347 32.16 150.2 33.24 146.2 33.24C143.027 33.24 140.867 32.0933 139.72 29.8C139.32 29 139.12 27.8533 139.12 26.36C139.12 24.8667 139.414 23.32 140 21.72C140.587 20.0933 141.36 18.6933 142.32 17.52C143.307 16.3467 144.44 15.44 145.72 14.8C147 14.1333 148.36 13.8 149.8 13.8C151.267 13.8 152.387 14.16 153.16 14.88C153.96 15.6 154.36 16.5333 154.36 17.68C154.36 18.8267 154.067 19.7733 153.48 20.52C152.92 21.24 152.187 21.8533 151.28 22.36C150.374 22.84 149.36 23.28 148.24 23.68C147.147 24.0533 146.067 24.48 145 24.96V25.96C145.027 26.92 145.427 27.6 146.2 28C146.974 28.4 147.854 28.6133 148.84 28.64ZM148.16 17.36C146.774 17.36 145.814 18.9733 145.28 22.2C145.84 21.8267 146.36 21.4933 146.84 21.2C147.347 20.9067 147.787 20.6267 148.16 20.36C148.96 19.7733 149.374 19.1067 149.4 18.36C149.4 17.6933 148.987 17.36 148.16 17.36Z" fill="#F2BF07"/>
<path d="M9.16 31.24L8.66071 31.2133L8.66 31.2266V31.24H9.16ZM3.36 32.6L2.86581 32.676L2.86752 32.6871L2.86971 32.6981L3.36 32.6ZM4.76 20.12L4.27795 19.9872L4.27762 19.9884L4.76 20.12ZM10.32 9L10.5669 9.43497L10.5772 9.42875L10.32 9ZM11.52 13.08L11.0244 13.0139L11.0244 13.0139L11.52 13.08ZM10.36 19.28L9.87176 19.1721L9.87073 19.177L10.36 19.28ZM9.56 23.76L10.0593 23.7867L10.06 23.7734V23.76H9.56ZM12.44 19.8L12.3111 19.3168L12.3026 19.3192L12.44 19.8ZM13.92 19.52L13.9876 20.0154L13.9985 20.0139L14.0094 20.0119L13.92 19.52ZM15.84 19.08L15.97 19.5628L15.97 19.5628L15.84 19.08ZM17.76 18.04L17.4334 17.6614L17.4332 17.6616L17.76 18.04ZM18 8.12L17.6887 8.51132L17.693 8.51467L18 8.12ZM6.64 8.12L6.42384 7.66914L6.42309 7.6695L6.64 8.12ZM4.68 9.08L4.45635 8.6327L4.448 8.63708L4.68 9.08ZM3.72 6.84L3.35142 6.50214L3.34472 6.50945L3.33831 6.51703L3.72 6.84ZM7.88 4.16L7.68227 3.70075L7.67993 3.70177L7.88 4.16ZM13.92 2.92L13.92 3.42001L13.9234 3.41999L13.92 2.92ZM23.2 5.72L23.5263 5.34111L23.525 5.34005L23.2 5.72ZM23.24 19.2L23.6076 19.5389L23.6098 19.5366L23.24 19.2ZM8.66 31.24C8.66 31.5484 8.58613 31.7955 8.45322 32.0001C8.3187 32.2071 8.1048 32.3994 7.78176 32.5651C7.12119 32.904 6.0668 33.1 4.56 33.1V34.1C6.11986 34.1 7.36548 33.9026 8.23824 33.4549C8.68187 33.2273 9.04297 32.9279 9.29178 32.5449C9.54221 32.1595 9.66 31.7182 9.66 31.24H8.66ZM4.56 33.1C4.31017 33.1 4.1675 33.0387 4.08009 32.9659C3.99154 32.8921 3.90147 32.7578 3.85029 32.5019L2.86971 32.6981C2.95186 33.1088 3.12846 33.4746 3.43991 33.7341C3.7525 33.9946 4.14317 34.1 4.56 34.1V33.1ZM3.85419 32.524C3.75322 31.8677 3.7 30.937 3.7 29.72H2.7C2.7 30.9563 2.75345 31.9456 2.86581 32.676L3.85419 32.524ZM3.7 29.72C3.7 27.1946 4.20861 24.0421 5.24238 20.2516L4.27762 19.9884C3.23139 23.8246 2.7 27.072 2.7 29.72H3.7ZM5.24205 20.2528C6.1044 17.1218 6.99089 14.6562 7.89721 12.8436C8.81117 11.0157 9.7123 9.91983 10.5668 9.43484L10.0732 8.56516C8.95437 9.20017 7.94216 10.5176 7.00279 12.3964C6.05577 14.2904 5.14893 16.8249 4.27795 19.9872L5.24205 20.2528ZM10.5772 9.42875C10.7639 9.31677 10.9679 9.26 11.2 9.26V8.26C10.7921 8.26 10.4095 8.36323 10.0628 8.57125L10.5772 9.42875ZM11.2 9.26C11.0046 9.26 11.0149 9.07869 11.0821 9.29704C11.1396 9.48384 11.18 9.81318 11.18 10.32H12.18C12.18 9.78682 12.1404 9.33615 12.0379 9.00296C11.9451 8.70131 11.7154 8.26 11.2 8.26V9.26ZM11.18 10.32C11.18 11.3438 11.1274 12.241 11.0244 13.0139L12.0156 13.1461C12.1259 12.319 12.18 11.3762 12.18 10.32H11.18ZM11.0244 13.0139C10.8137 14.5941 10.4303 16.6454 9.87179 19.1721L10.8482 19.3879C11.4097 16.848 11.7996 14.7659 12.0156 13.1461L11.0244 13.0139ZM9.87073 19.177C9.60363 20.4457 9.40243 21.4581 9.26779 22.2121C9.13641 22.9478 9.06 23.4805 9.06 23.76H10.06C10.06 23.5861 10.1169 23.1455 10.2522 22.3879C10.3842 21.6486 10.583 20.6476 10.8493 19.383L9.87073 19.177ZM9.06071 23.7333L8.66071 31.2133L9.65929 31.2667L10.0593 23.7867L9.06071 23.7333ZM12.38 20.48C12.38 20.4007 12.3992 20.3761 12.406 20.3679C12.417 20.3544 12.4572 20.3151 12.5774 20.2808L12.3026 19.3192C12.0495 19.3916 11.8096 19.5189 11.634 19.7321C11.4542 19.9506 11.38 20.2126 11.38 20.48H12.38ZM12.5688 20.2831C12.9422 20.1836 13.4136 20.0937 13.9876 20.0154L13.8524 19.0246C13.2531 19.1063 12.7378 19.2031 12.3112 19.3169L12.5688 20.2831ZM14.0094 20.0119C14.6122 19.9023 15.2659 19.7524 15.97 19.5628L15.71 18.5972C15.0275 18.781 14.4012 18.9243 13.8306 19.0281L14.0094 20.0119ZM15.97 19.5628C16.7416 19.3551 17.4478 18.9703 18.0868 18.4184L17.4332 17.6616C16.8988 18.1231 16.3251 18.4316 15.71 18.5972L15.97 19.5628ZM18.0866 18.4186C19.6041 17.1093 20.3 14.9748 20.3 12.16H19.3C19.3 14.8385 18.6359 16.624 17.4334 17.6614L18.0866 18.4186ZM20.3 12.16C20.3 10.2732 19.6489 8.76907 18.307 7.72532L17.693 8.51467C18.7511 9.3376 19.3 10.5268 19.3 12.16H20.3ZM18.3113 7.7287C17.0151 6.69765 15.1795 6.22 12.88 6.22V7.22C15.0605 7.22 16.6383 7.67569 17.6887 8.5113L18.3113 7.7287ZM12.88 6.22C10.5938 6.22 8.43971 6.70263 6.42384 7.66914L6.85616 8.57086C8.73363 7.6707 10.7395 7.22 12.88 7.22V6.22ZM6.42309 7.6695C5.70131 8.01702 5.0457 8.33813 4.45639 8.63278L4.90361 9.52721C5.48763 9.2352 6.13869 8.91631 6.85691 8.5705L6.42309 7.6695ZM4.448 8.63708C3.93772 8.90437 3.49767 9.02 3.12 9.02V10.02C3.70233 10.02 4.30228 9.84229 4.912 9.52291L4.448 8.63708ZM3.12 9.02C3.02395 9.02 2.95375 9.01253 2.9048 9.00256C2.85523 8.99246 2.8386 8.98206 2.84073 8.98336C2.84617 8.98669 2.86703 9.00205 2.88395 9.03307C2.90035 9.06314 2.9 9.08399 2.9 9.08H1.9C1.9 9.39175 2.04305 9.66783 2.31927 9.83664C2.55543 9.98095 2.84534 10.02 3.12 10.02V9.02ZM2.9 9.08C2.9 8.99222 2.95158 8.78884 3.16077 8.43385C3.36069 8.09459 3.67089 7.6721 4.10169 7.16297L3.33831 6.51703C2.88911 7.0479 2.53931 7.51874 2.29923 7.92615C2.06842 8.31783 1.9 8.71444 1.9 9.08H2.9ZM4.08858 7.17786C4.90185 6.29065 6.21736 5.43152 8.08007 4.61823L7.67993 3.70177C5.75597 4.54181 4.29815 5.46934 3.35142 6.50214L4.08858 7.17786ZM8.07773 4.61924C9.93478 3.81968 11.8808 3.42 13.92 3.42V2.42C11.7459 2.42 9.66522 2.84699 7.68227 3.70076L8.07773 4.61924ZM13.9234 3.41999C17.8203 3.39383 20.7817 4.30935 22.875 6.09995L23.525 5.34005C21.1916 3.34399 17.9663 2.39283 13.9166 2.42001L13.9234 3.41999ZM22.8737 6.09888C24.6783 7.65277 25.58 9.65859 25.58 12.16H26.58C26.58 9.38141 25.5617 7.09389 23.5263 5.34111L22.8737 6.09888ZM25.58 12.16C25.58 14.6389 24.6867 16.8678 22.8702 18.8634L23.6098 19.5366C25.5799 17.3722 26.58 14.9078 26.58 12.16H25.58ZM22.8724 18.8611C21.076 20.8092 18.8371 21.78 16.12 21.78V22.78C19.1096 22.78 21.6173 21.6974 23.6076 19.5389L22.8724 18.8611ZM16.12 21.78C14.7269 21.78 13.7482 21.6299 13.1354 21.3698C12.8342 21.2419 12.648 21.0985 12.5383 20.9587C12.4343 20.8263 12.38 20.6739 12.38 20.48H11.38C11.38 20.8861 11.5024 21.2587 11.7517 21.5763C11.9953 21.8865 12.3391 22.1181 12.7446 22.2902C13.5452 22.6301 14.6865 22.78 16.12 22.78V21.78ZM35.0122 28.64L34.9987 29.14H35.0122V28.64ZM41.0522 26.16L41.3759 26.5411L41.3764 26.5406L41.0522 26.16ZM42.8122 24.48L43.1849 24.8135L43.1932 24.8038L42.8122 24.48ZM43.8122 27.32L44.2697 27.5218L44.2718 27.517L43.8122 27.32ZM41.8122 30L42.155 30.364L42.1552 30.3638L41.8122 30ZM25.8922 29.8L25.445 30.0236L25.445 30.0236L25.8922 29.8ZM26.1722 21.72L26.6416 21.8921L26.6425 21.8896L26.1722 21.72ZM28.4922 17.52L28.1095 17.1982L28.1052 17.2034L28.4922 17.52ZM31.8922 14.8L32.1158 15.2473L32.1232 15.2435L31.8922 14.8ZM39.3322 14.88L38.9914 15.246L38.9977 15.2516L39.3322 14.88ZM39.6522 20.52L39.259 20.2111L39.2575 20.213L39.6522 20.52ZM37.4522 22.36L37.6862 22.802L37.6961 22.7965L37.4522 22.36ZM34.4122 23.68L34.5738 24.1532L34.5804 24.1509L34.4122 23.68ZM31.1722 24.96L30.967 24.504L30.6722 24.6367V24.96H31.1722ZM31.1722 25.96H30.672L30.6724 25.9739L31.1722 25.96ZM32.3722 28L32.1425 28.4441L32.1425 28.4441L32.3722 28ZM31.4522 22.2L30.9589 22.1185L30.771 23.255L31.7295 22.616L31.4522 22.2ZM33.0122 21.2L32.7616 20.7672L32.7515 20.7734L33.0122 21.2ZM34.3322 20.36L34.6228 20.7669L34.6279 20.7632L34.3322 20.36ZM35.5722 18.36L36.0719 18.3778L36.0722 18.3689V18.36H35.5722ZM35.0122 29.14C37.2361 29.14 39.3602 28.253 41.3759 26.5411L40.7285 25.7789C38.8509 27.3736 36.9483 28.14 35.0122 28.14V29.14ZM41.3764 26.5406C42.1075 25.9179 42.7119 25.3419 43.1848 24.8134L42.4396 24.1466C42.0058 24.6314 41.4369 25.1755 40.728 25.7794L41.3764 26.5406ZM43.1932 24.8038C43.4089 24.55 43.583 24.3794 43.717 24.2763C43.866 24.1617 43.9018 24.18 43.8522 24.18V23.18C43.5626 23.18 43.305 23.3316 43.1073 23.4837C42.8947 23.6473 42.6688 23.8766 42.4312 24.1562L43.1932 24.8038ZM43.8522 24.18C43.858 24.18 43.8408 24.18 43.8198 24.166C43.802 24.1541 43.808 24.1496 43.825 24.1836C43.8661 24.2658 43.9122 24.4522 43.9122 24.8H44.9122C44.9122 24.4011 44.865 24.0275 44.7194 23.7364C44.6431 23.5837 44.5324 23.4392 44.3745 23.334C44.2135 23.2266 44.033 23.18 43.8522 23.18V24.18ZM43.9122 24.8C43.9122 25.4593 43.735 26.2309 43.3526 27.123L44.2718 27.517C44.6894 26.5425 44.9122 25.6341 44.9122 24.8H43.9122ZM43.3547 27.1182C42.9884 27.9486 42.3676 28.7891 41.4692 29.6362L42.1552 30.3638C43.1234 29.4509 43.836 28.5047 44.2696 27.5218L43.3547 27.1182ZM41.4694 29.636C39.2919 31.6869 36.2805 32.74 32.3722 32.74V33.74C36.4638 33.74 39.7458 32.6331 42.155 30.364L41.4694 29.636ZM32.3722 32.74C29.3342 32.74 27.3796 31.6569 26.3394 29.5764L25.445 30.0236C26.6981 32.5298 29.0635 33.74 32.3722 33.74V32.74ZM26.3394 29.5764C25.99 28.8775 25.7922 27.8213 25.7922 26.36H24.7922C24.7922 27.8854 24.9944 29.1225 25.445 30.0236L26.3394 29.5764ZM25.7922 26.36C25.7922 24.9331 26.0724 23.4447 26.6416 21.8921L25.7027 21.5479C25.0987 23.1953 24.7922 24.8003 24.7922 26.36H25.7922ZM26.6425 21.8896C27.2126 20.3089 27.9598 18.9603 28.8792 17.8366L28.1052 17.2034C27.1046 18.4263 26.3051 19.8777 25.7018 21.5504L26.6425 21.8896ZM28.8749 17.8418C29.8208 16.7169 30.9011 15.8546 32.1158 15.2472L31.6686 14.3528C30.3233 15.0254 29.1369 15.9764 28.1095 17.1982L28.8749 17.8418ZM32.1232 15.2435C33.332 14.6139 34.6128 14.3 35.9722 14.3V13.3C34.4516 13.3 33.0124 13.6528 31.6612 14.3565L32.1232 15.2435ZM35.9722 14.3C37.3618 14.3 38.3414 14.6407 38.9915 15.2459L39.6729 14.5141C38.7763 13.6793 37.5159 13.3 35.9722 13.3V14.3ZM38.9977 15.2516C39.6848 15.8701 40.0322 16.6646 40.0322 17.68H41.0322C41.0322 16.402 40.5796 15.3299 39.6667 14.5084L38.9977 15.2516ZM40.0322 17.68C40.0322 18.7386 39.763 19.5697 39.259 20.2111L40.0453 20.8289C40.7147 19.977 41.0322 18.9147 41.0322 17.68H40.0322ZM39.2575 20.213C38.7439 20.8734 38.0646 21.445 37.2083 21.9235L37.6961 22.7965C38.6531 22.2617 39.4405 21.6066 40.0469 20.827L39.2575 20.213ZM37.2182 21.9181C36.3358 22.3853 35.3449 22.816 34.244 23.2091L34.5804 24.1509C35.7195 23.744 36.7552 23.2947 37.6861 22.8019L37.2182 21.9181ZM34.2506 23.2068C33.1423 23.5853 32.0478 24.0177 30.967 24.504L31.3774 25.416C32.43 24.9423 33.4954 24.5214 34.5738 24.1532L34.2506 23.2068ZM30.6722 24.96V25.96H31.6722V24.96H30.6722ZM30.6724 25.9739C30.7035 27.0929 31.1882 27.9505 32.1425 28.4441L32.6019 27.5559C32.0095 27.2495 31.6942 26.7471 31.672 25.9461L30.6724 25.9739ZM32.1425 28.4441C32.9912 28.8831 33.9468 29.1114 34.9987 29.1398L35.0257 28.1402C34.1043 28.1153 33.2998 27.9169 32.6019 27.5559L32.1425 28.4441ZM34.3322 16.86C33.4022 16.86 32.6767 17.4165 32.1425 18.3143C31.6153 19.2003 31.2293 20.4824 30.9589 22.1185L31.9455 22.2815C32.2084 20.691 32.569 19.5531 33.0019 18.8257C33.4276 18.1102 33.8756 17.86 34.3322 17.86V16.86ZM31.7295 22.616C32.2851 22.2457 32.7995 21.916 33.2729 21.6266L32.7515 20.7734C32.2649 21.0707 31.7393 21.4077 31.1748 21.784L31.7295 22.616ZM33.2627 21.6327C33.7796 21.3335 34.2336 21.0449 34.6228 20.7669L34.0416 19.9531C33.6841 20.2084 33.2581 20.4799 32.7617 20.7673L33.2627 21.6327ZM34.6279 20.7632C35.5077 20.118 36.0381 19.3243 36.0719 18.3778L35.0725 18.3422C35.053 18.8891 34.7567 19.4287 34.0365 19.9568L34.6279 20.7632ZM36.0722 18.36C36.0722 17.9177 35.9298 17.5061 35.5761 17.2208C35.2429 16.9521 34.7996 16.86 34.3322 16.86V17.86C34.6914 17.86 34.8681 17.9346 34.9483 17.9992C35.0079 18.0473 35.0722 18.1356 35.0722 18.36H36.0722ZM50.4509 15.8L49.9973 16.0104L50.3052 16.6742L50.8118 16.1461L50.4509 15.8ZM59.2909 15.08L58.9594 15.4543L58.9655 15.4596L59.2909 15.08ZM60.0909 23L59.6073 22.8727L59.6054 22.8807L60.0909 23ZM59.2509 26.28L58.7693 26.1451L58.7659 26.1587L59.2509 26.28ZM60.9309 27.76L60.6041 27.3816L60.6041 27.3816L60.9309 27.76ZM62.6909 26.12L63.0446 26.4736L63.0523 26.4656L62.6909 26.12ZM64.2909 24.44L63.9373 24.0863L63.928 24.0961L64.2909 24.44ZM63.1309 30.44L63.3838 30.8713L63.4326 30.8427L63.4738 30.8039L63.1309 30.44ZM57.0509 33.12L57.4045 32.7664L57.258 32.62H57.0509V33.12ZM54.2509 23.96L53.7645 23.8437L53.7623 23.8538L54.2509 23.96ZM50.2509 20.6L49.8246 20.3387L49.8234 20.3407L50.2509 20.6ZM48.2509 25.68L47.7604 25.5834L47.7509 25.6312V25.68H48.2509ZM48.6509 28.76L48.169 28.8939L48.1728 28.9061L48.6509 28.76ZM45.6909 33.44L45.8704 33.9067L45.8719 33.9061L45.6909 33.44ZM43.3709 32.6L42.8984 32.7636L42.9012 32.7716L42.9043 32.7795L43.3709 32.6ZM43.4509 21.16L43.9435 21.246L43.9447 21.2388L43.4509 21.16ZM46.1709 14.16L46.5893 14.4338L46.5915 14.4304L46.1709 14.16ZM47.7309 13.54C48.0359 13.54 48.3819 13.6823 48.7748 14.081C49.1716 14.4835 49.5827 15.1162 49.9973 16.0104L50.9045 15.5896C50.4659 14.6438 49.997 13.8965 49.4871 13.379C48.9733 12.8577 48.386 12.54 47.7309 12.54V13.54ZM50.8118 16.1461C51.9691 14.9395 53.3847 14.34 55.0909 14.34V13.34C53.1172 13.34 51.4394 14.0471 50.0901 15.4539L50.8118 16.1461ZM55.0909 14.34C56.8945 14.34 58.1537 14.7407 58.9594 15.4543L59.6225 14.7057C58.5615 13.766 57.0207 13.34 55.0909 13.34V14.34ZM58.9655 15.4596C59.7644 16.1444 60.1909 17.1383 60.1909 18.52H61.1909C61.1909 16.915 60.6841 15.6156 59.6163 14.7004L58.9655 15.4596ZM60.1909 18.52C60.1909 19.9408 59.9973 21.3913 59.6074 22.8728L60.5745 23.1272C60.9846 21.5687 61.1909 20.0326 61.1909 18.52H60.1909ZM59.6054 22.8807C59.2321 24.4003 58.9538 25.4869 58.7695 26.1452L59.7324 26.4148C59.9214 25.7398 60.2031 24.6397 60.5765 23.1193L59.6054 22.8807ZM58.7659 26.1587C58.6007 26.8193 58.5109 27.3966 58.5109 27.88H59.5109C59.5109 27.51 59.5812 27.0207 59.736 26.4013L58.7659 26.1587ZM58.5109 27.88C58.5109 28.1351 58.552 28.415 58.7089 28.6433C58.8891 28.9053 59.1651 29.02 59.4509 29.02V28.02C59.4383 28.02 59.4513 28.0179 59.4766 28.0301C59.5042 28.0435 59.5235 28.063 59.533 28.0767C59.5402 28.0872 59.5337 28.0827 59.5258 28.0483C59.5179 28.014 59.5109 27.9596 59.5109 27.88H58.5109ZM59.4509 29.02C60.0415 29.02 60.6539 28.66 61.2577 28.1384L60.6041 27.3816C60.0347 27.8734 59.6604 28.02 59.4509 28.02V29.02ZM61.2577 28.1384C61.8542 27.6233 62.4498 27.0682 63.0445 26.4736L62.3374 25.7664C61.7587 26.3451 61.181 26.8834 60.6041 27.3816L61.2577 28.1384ZM63.0523 26.4656C63.6394 25.8518 64.1733 25.2912 64.6539 24.7839L63.928 24.0961C63.4486 24.6021 62.9158 25.1615 62.3296 25.7744L63.0523 26.4656ZM64.6445 24.7936C64.8899 24.5481 65.0825 24.3785 65.2259 24.2737C65.2976 24.2213 65.3466 24.1928 65.3755 24.1791C65.4099 24.1628 65.3892 24.18 65.3309 24.18V23.18C65.1793 23.18 65.0453 23.2289 64.9464 23.2759C64.8419 23.3255 64.7376 23.392 64.6359 23.4663C64.4327 23.6148 64.1986 23.8252 63.9374 24.0864L64.6445 24.7936ZM65.3309 24.18C65.3143 24.18 65.2838 24.1718 65.2613 24.1536C65.247 24.142 65.2628 24.1478 65.2886 24.2104C65.3441 24.3452 65.3909 24.606 65.3909 25.04H66.3909C66.3909 24.5673 66.3444 24.1482 66.2133 23.8296C66.1457 23.6656 66.0449 23.5013 65.8905 23.3764C65.7281 23.2449 65.5343 23.18 65.3309 23.18V24.18ZM65.3909 25.04C65.3909 26.7253 64.5646 28.4025 62.7881 30.0761L63.4738 30.8039C65.3772 29.0108 66.3909 27.088 66.3909 25.04H65.3909ZM62.8781 30.0087C61.3378 30.9116 60.0873 31.5822 59.1222 32.0257C58.6396 32.2474 58.2359 32.4088 57.9082 32.5139C57.5735 32.6213 57.3478 32.66 57.2109 32.66V33.66C57.5007 33.66 57.8417 33.5854 58.2137 33.4661C58.5926 33.3446 59.0356 33.1659 59.5397 32.9343C60.5479 32.4711 61.8307 31.7818 63.3838 30.8713L62.8781 30.0087ZM57.2109 32.66C57.1951 32.66 57.2057 32.6583 57.2322 32.6649C57.2557 32.6708 57.3309 32.6928 57.4045 32.7664L56.6974 33.4736C56.7977 33.5738 56.9129 33.6159 56.9897 33.6351C57.0695 33.655 57.1468 33.66 57.2109 33.66V32.66ZM57.0509 32.62C56.1442 32.62 55.5105 32.2719 55.0749 31.575C54.6149 30.839 54.3509 29.6708 54.3509 28H53.3509C53.3509 29.7426 53.6203 31.1344 54.2269 32.105C54.8581 33.1148 55.8244 33.62 57.0509 33.62V32.62ZM54.3509 28C54.3509 26.5632 54.4816 25.2527 54.7395 24.0662L53.7623 23.8538C53.487 25.1206 53.3509 26.5034 53.3509 28H54.3509ZM54.7372 24.0763C55.0306 22.8496 55.2439 21.9561 55.3773 21.3958L54.4045 21.1642C54.2713 21.7239 54.058 22.6171 53.7646 23.8437L54.7372 24.0763ZM55.3773 21.3958C55.5199 20.7971 55.5909 20.1849 55.5909 19.56H54.5909C54.5909 20.1084 54.5287 20.6429 54.4045 21.1642L55.3773 21.3958ZM55.5909 19.56C55.5909 18.9811 55.4185 18.4622 54.9963 18.1004C54.5889 17.7512 54.0308 17.62 53.4109 17.62V18.62C53.9111 18.62 54.1929 18.7288 54.3455 18.8596C54.4834 18.9778 54.5909 19.1789 54.5909 19.56H55.5909ZM53.4109 17.62C52.0421 17.62 50.8587 18.6515 49.8246 20.3387L50.6772 20.8613C51.6698 19.2418 52.5931 18.62 53.4109 18.62V17.62ZM49.8234 20.3407C48.8082 22.0144 48.119 23.7625 47.7604 25.5834L48.7415 25.7766C49.0762 24.0775 49.7203 22.4389 50.6784 20.8593L49.8234 20.3407ZM47.7509 25.68V25.96H48.7509V25.68H47.7509ZM47.7509 25.96C47.7509 26.9161 47.8916 27.8945 48.1692 28.8938L49.1327 28.6262C48.877 27.7055 48.7509 26.8172 48.7509 25.96H47.7509ZM48.1728 28.9061C48.4681 29.8728 48.5909 30.4717 48.5909 30.76H49.5909C49.5909 30.3017 49.4204 29.5672 49.1291 28.6139L48.1728 28.9061ZM48.5909 30.76C48.5909 30.9879 48.4491 31.3092 47.9314 31.7173C47.4213 32.1194 46.6241 32.5414 45.51 32.9739L45.8719 33.9061C47.0245 33.4586 47.9272 32.994 48.5505 32.5027C49.1661 32.0174 49.5909 31.4388 49.5909 30.76H48.5909ZM45.5114 32.9733C45.2012 33.0927 44.9573 33.14 44.7709 33.14V34.14C45.1179 34.14 45.4873 34.054 45.8704 33.9067L45.5114 32.9733ZM44.7709 33.14C44.5286 33.14 44.3539 33.0788 44.2191 32.9786C44.0803 32.8755 43.9463 32.7031 43.8376 32.4205L42.9043 32.7795C43.0623 33.1903 43.2949 33.5378 43.6228 33.7814C43.9546 34.0279 44.3466 34.14 44.7709 34.14V33.14ZM43.8434 32.4364C43.632 31.8255 43.5109 30.8151 43.5109 29.36H42.5109C42.5109 30.8382 42.6299 31.9878 42.8984 32.7636L43.8434 32.4364ZM43.5109 29.36C43.5109 25.576 43.6582 22.8801 43.9435 21.246L42.9584 21.074C42.657 22.7999 42.5109 25.5706 42.5109 29.36H43.5109ZM43.9447 21.2388C44.3334 18.8029 45.2139 16.5358 46.5893 14.4338L45.7525 13.8862C44.3013 16.1042 43.3685 18.5038 42.9572 21.0812L43.9447 21.2388ZM46.5915 14.4304C47.0356 13.7396 47.4237 13.54 47.7309 13.54V12.54C46.9182 12.54 46.2663 13.087 45.7503 13.8896L46.5915 14.4304ZM73.2153 28.64L73.2018 29.14H73.2153V28.64ZM79.2553 26.16L79.579 26.5411L79.5795 26.5406L79.2553 26.16ZM81.0153 24.48L81.3881 24.8135L81.3963 24.8038L81.0153 24.48ZM82.0153 27.32L82.4728 27.5218L82.4749 27.517L82.0153 27.32ZM80.0153 30L80.3581 30.364L80.3583 30.3638L80.0153 30ZM64.0953 29.8L63.6481 30.0236L63.6481 30.0236L64.0953 29.8ZM64.3753 21.72L64.8448 21.8921L64.8457 21.8896L64.3753 21.72ZM66.6953 17.52L66.3126 17.1982L66.3083 17.2034L66.6953 17.52ZM70.0953 14.8L70.3189 15.2473L70.3263 15.2435L70.0953 14.8ZM77.5353 14.88L77.1946 15.246L77.2008 15.2516L77.5353 14.88ZM77.8553 20.52L77.4621 20.2111L77.4606 20.213L77.8553 20.52ZM75.6553 22.36L75.8893 22.802L75.8992 22.7965L75.6553 22.36ZM72.6153 23.68L72.7769 24.1532L72.7835 24.1509L72.6153 23.68ZM69.3753 24.96L69.1701 24.504L68.8753 24.6367V24.96H69.3753ZM69.3753 25.96H68.8751L68.8755 25.9739L69.3753 25.96ZM70.5753 28L70.3456 28.4441L70.3456 28.4441L70.5753 28ZM69.6553 22.2L69.162 22.1185L68.9741 23.255L69.9327 22.616L69.6553 22.2ZM71.2153 21.2L70.9647 20.7672L70.9546 20.7734L71.2153 21.2ZM72.5353 20.36L72.826 20.7669L72.831 20.7632L72.5353 20.36ZM73.7753 18.36L74.275 18.3778L74.2753 18.3689V18.36H73.7753ZM73.2153 29.14C75.4392 29.14 77.5633 28.253 79.579 26.5411L78.9316 25.7789C77.054 27.3736 75.1514 28.14 73.2153 28.14V29.14ZM79.5795 26.5406C80.3106 25.9179 80.915 25.3419 81.3879 24.8134L80.6427 24.1466C80.2089 24.6314 79.64 25.1755 78.9311 25.7794L79.5795 26.5406ZM81.3963 24.8038C81.612 24.55 81.7862 24.3794 81.9202 24.2763C82.0691 24.1617 82.1049 24.18 82.0553 24.18V23.18C81.7657 23.18 81.5082 23.3316 81.3105 23.4837C81.0978 23.6473 80.8719 23.8766 80.6343 24.1562L81.3963 24.8038ZM82.0553 24.18C82.0612 24.18 82.044 24.18 82.023 24.166C82.0051 24.1541 82.0111 24.1496 82.0281 24.1836C82.0692 24.2658 82.1153 24.4522 82.1153 24.8H83.1153C83.1153 24.4011 83.0681 24.0275 82.9225 23.7364C82.8462 23.5837 82.7355 23.4392 82.5777 23.334C82.4167 23.2266 82.2361 23.18 82.0553 23.18V24.18ZM82.1153 24.8C82.1153 25.4593 81.9381 26.2309 81.5557 27.123L82.4749 27.517C82.8925 26.5425 83.1153 25.6341 83.1153 24.8H82.1153ZM81.5579 27.1182C81.1915 27.9486 80.5707 28.7891 79.6723 29.6362L80.3583 30.3638C81.3266 29.4509 82.0392 28.5047 82.4728 27.5218L81.5579 27.1182ZM79.6725 29.636C77.4951 31.6869 74.4837 32.74 70.5753 32.74V33.74C74.667 33.74 77.9489 32.6331 80.3581 30.364L79.6725 29.636ZM70.5753 32.74C67.5373 32.74 65.5828 31.6569 64.5425 29.5764L63.6481 30.0236C64.9012 32.5298 67.2666 33.74 70.5753 33.74V32.74ZM64.5425 29.5764C64.1931 28.8775 63.9953 27.8213 63.9953 26.36H62.9953C62.9953 27.8854 63.1975 29.1225 63.6481 30.0236L64.5425 29.5764ZM63.9953 26.36C63.9953 24.9331 64.2755 23.4447 64.8448 21.8921L63.9059 21.5479C63.3018 23.1953 62.9953 24.8003 62.9953 26.36H63.9953ZM64.8457 21.8896C65.4157 20.3089 66.1629 18.9603 67.0823 17.8366L66.3083 17.2034C65.3077 18.4263 64.5082 19.8777 63.905 21.5504L64.8457 21.8896ZM67.078 17.8418C68.0239 16.7169 69.1042 15.8546 70.3189 15.2472L69.8717 14.3528C68.5264 15.0254 67.34 15.9764 66.3126 17.1982L67.078 17.8418ZM70.3263 15.2435C71.5351 14.6139 72.8159 14.3 74.1753 14.3V13.3C72.6547 13.3 71.2155 13.6528 69.8643 14.3565L70.3263 15.2435ZM74.1753 14.3C75.565 14.3 76.5445 14.6407 77.1946 15.2459L77.876 14.5141C76.9794 13.6793 75.719 13.3 74.1753 13.3V14.3ZM77.2008 15.2516C77.8879 15.8701 78.2353 16.6646 78.2353 17.68H79.2353C79.2353 16.402 78.7827 15.3299 77.8698 14.5084L77.2008 15.2516ZM78.2353 17.68C78.2353 18.7386 77.9661 19.5697 77.4622 20.2111L78.2485 20.8289C78.9179 19.977 79.2353 18.9147 79.2353 17.68H78.2353ZM77.4606 20.213C76.947 20.8734 76.2677 21.445 75.4114 21.9235L75.8992 22.7965C76.8562 22.2617 77.6436 21.6066 78.25 20.827L77.4606 20.213ZM75.4214 21.9181C74.5389 22.3853 73.548 22.816 72.4471 23.2091L72.7835 24.1509C73.9226 23.744 74.9584 23.2947 75.8893 22.8019L75.4214 21.9181ZM72.4537 23.2068C71.3454 23.5853 70.2509 24.0177 69.1701 24.504L69.5805 25.416C70.6331 24.9423 71.6985 24.5214 72.7769 24.1532L72.4537 23.2068ZM68.8753 24.96V25.96H69.8753V24.96H68.8753ZM68.8755 25.9739C68.9066 27.0929 69.3913 27.9505 70.3456 28.4441L70.805 27.5559C70.2127 27.2495 69.8974 26.7471 69.8751 25.9461L68.8755 25.9739ZM70.3456 28.4441C71.1943 28.8831 72.1499 29.1114 73.2018 29.1398L73.2288 28.1402C72.3074 28.1153 71.503 27.9169 70.805 27.5559L70.3456 28.4441ZM72.5353 16.86C71.6053 16.86 70.8799 17.4165 70.3456 18.3143C69.8185 19.2003 69.4324 20.4824 69.162 22.1185L70.1486 22.2815C70.4115 20.691 70.7722 19.5531 71.205 18.8257C71.6308 18.1102 72.0787 17.86 72.5353 17.86V16.86ZM69.9327 22.616C70.4882 22.2457 71.0026 21.916 71.476 21.6266L70.9546 20.7734C70.468 21.0707 69.9424 21.4077 69.378 21.784L69.9327 22.616ZM71.4658 21.6327C71.9827 21.3335 72.4367 21.0449 72.8259 20.7669L72.2447 19.9531C71.8873 20.2084 71.4612 20.4799 70.9648 20.7673L71.4658 21.6327ZM72.831 20.7632C73.7108 20.118 74.2412 19.3243 74.275 18.3778L73.2756 18.3422C73.2561 18.8891 72.9598 19.4287 72.2396 19.9568L72.831 20.7632ZM74.2753 18.36C74.2753 17.9177 74.1329 17.5061 73.7792 17.2208C73.446 16.9521 73.0028 16.86 72.5353 16.86V17.86C72.8945 17.86 73.0713 17.9346 73.1514 17.9992C73.211 18.0473 73.2753 18.1356 73.2753 18.36H74.2753ZM89.5341 33.12V32.62L89.5306 32.62L89.5341 33.12ZM81.7341 28.84L81.2822 29.054L81.2836 29.0569L81.7341 28.84ZM81.4141 20.12L80.9199 20.044L80.9199 20.044L81.4141 20.12ZM84.4941 10.52L84.938 10.75L84.9381 10.7499L84.4941 10.52ZM87.0941 6.68L87.4657 7.01448L87.4661 7.01401L87.0941 6.68ZM94.1341 3.2L94.1289 3.7H94.1341V3.2ZM96.8141 4.16L96.4605 4.51355L96.4679 4.52092L96.4755 4.52796L96.8141 4.16ZM96.7741 10.4L97.2045 10.6544L97.207 10.6501L96.7741 10.4ZM94.0941 14.08L93.7139 13.7553L93.7133 13.7559L94.0941 14.08ZM90.5341 18.04L90.898 18.3829L90.898 18.3829L90.5341 18.04ZM86.6941 22.56L86.298 22.2548L86.1941 22.3897V22.56H86.6941ZM87.6541 27.44L88.0215 27.1009L88.0215 27.1009L87.6541 27.44ZM95.9741 25.08L96.369 25.3866L96.37 25.3854L95.9741 25.08ZM97.4141 27.84L96.9718 27.6066L96.9694 27.6113L97.4141 27.84ZM95.4941 30.44L95.8416 30.7995L95.8476 30.7936L95.4941 30.44ZM92.7341 32.36L92.5151 31.9105L92.5151 31.9105L92.7341 32.36ZM91.6941 11.64L91.3051 11.3258L91.3051 11.3258L91.6941 11.64ZM93.0141 9.76L92.5799 9.51193L92.5799 9.51193L93.0141 9.76ZM89.7341 10L89.3048 9.74361L89.3022 9.74806L89.7341 10ZM87.2141 17.56L86.7219 17.4717L87.6325 17.8336L87.2141 17.56ZM89.6941 14.08L89.309 13.7609L89.3036 13.7677L89.6941 14.08ZM89.5306 32.62C87.6854 32.6329 86.1714 32.2939 84.9646 31.6317C83.7632 30.9724 82.8364 29.9769 82.1846 28.6231L81.2836 29.0569C82.0184 30.5831 83.085 31.7409 84.4835 32.5083C85.8767 33.2728 87.5694 33.6338 89.5376 33.62L89.5306 32.62ZM82.1859 28.626C81.7468 27.6989 81.5141 26.5109 81.5141 25.04H80.5141C80.5141 26.6091 80.7613 27.9544 81.2822 29.054L82.1859 28.626ZM81.5141 25.04C81.5141 23.5219 81.6449 21.9075 81.9082 20.196L80.9199 20.044C80.6498 21.7992 80.5141 23.4648 80.5141 25.04H81.5141ZM81.9082 20.196C82.4338 16.7798 83.4445 13.6322 84.938 10.75L84.0501 10.29C82.5036 13.2745 81.461 16.5269 80.9199 20.044L81.9082 20.196ZM84.9381 10.7499C85.6951 9.28809 86.5386 8.04465 87.4657 7.01448L86.7224 6.34552C85.7296 7.44868 84.8397 8.76524 84.0501 10.2901L84.9381 10.7499ZM87.4661 7.01401C89.4996 4.74883 91.717 3.67511 94.1289 3.69997L94.1392 2.70002C91.3778 2.67156 88.9018 3.91783 86.722 6.34598L87.4661 7.01401ZM94.1341 3.7C95.1853 3.7 95.9377 3.99071 96.4605 4.51355L97.1676 3.80645C96.4105 3.04928 95.3761 2.7 94.1341 2.7V3.7ZM96.4755 4.52796C97.011 5.02063 97.3141 5.76284 97.3141 6.84H98.3141C98.3141 5.57049 97.9504 4.52604 97.1526 3.79203L96.4755 4.52796ZM97.3141 6.84C97.3141 7.91078 96.9985 9.01205 96.3411 10.1499L97.207 10.6501C97.9363 9.38795 98.3141 8.11588 98.3141 6.84H97.3141ZM96.3436 10.1456C95.6679 11.2891 94.7926 12.4923 93.7139 13.7553L94.4742 14.4047C95.5822 13.1077 96.4936 11.8576 97.2045 10.6544L96.3436 10.1456ZM93.7133 13.7559C92.6529 15.0019 91.4719 16.3156 90.1702 17.6971L90.898 18.3829C92.2095 16.991 93.4019 15.6647 94.4748 14.4041L93.7133 13.7559ZM90.1702 17.6971C88.8513 19.0967 87.5606 20.6161 86.298 22.2548L87.0901 22.8652C88.3341 21.2506 89.6035 19.7566 90.898 18.3829L90.1702 17.6971ZM86.1941 22.56V24.16H87.1941V22.56H86.1941ZM86.1941 24.16C86.1941 25.7091 86.5235 26.9524 87.2867 27.7791L88.0215 27.1009C87.5046 26.5409 87.1941 25.5976 87.1941 24.16H86.1941ZM87.2867 27.7791C88.0102 28.563 88.8856 28.98 89.8941 28.98V27.98C89.1959 27.98 88.5779 27.7037 88.0215 27.1009L87.2867 27.7791ZM89.8941 28.98C92.3801 28.98 94.5405 27.7415 96.369 25.3866L95.5791 24.7734C93.8876 26.9518 91.9947 27.98 89.8941 27.98V28.98ZM96.37 25.3854C96.7204 24.9311 97.0129 24.6116 97.2487 24.4103C97.504 24.1923 97.6158 24.18 97.6141 24.18V23.18C97.239 23.18 96.8908 23.401 96.5994 23.6497C96.2885 23.9151 95.9477 24.2956 95.5782 24.7746L96.37 25.3854ZM97.6141 24.18C97.5974 24.18 97.5669 24.1718 97.5445 24.1536C97.5301 24.142 97.5459 24.1478 97.5717 24.2104C97.6272 24.3452 97.6741 24.606 97.6741 25.04H98.6741C98.6741 24.5673 98.6276 24.1482 98.4964 23.8296C98.4289 23.6656 98.328 23.5013 98.1737 23.3764C98.0112 23.2449 97.8174 23.18 97.6141 23.18V24.18ZM97.6741 25.04C97.6741 25.8507 97.448 26.7044 96.9719 27.6066L97.8563 28.0734C98.3934 27.0556 98.6741 26.0426 98.6741 25.04H97.6741ZM96.9694 27.6113C96.5149 28.4951 95.9067 29.3202 95.1405 30.0864L95.8476 30.7936C96.6814 29.9598 97.3532 29.0516 97.8587 28.0687L96.9694 27.6113ZM95.1466 30.0805C94.3859 30.8158 93.5097 31.426 92.5151 31.9105L92.953 32.8095C94.0385 32.2807 95.0022 31.6108 95.8416 30.7995L95.1466 30.0805ZM92.5151 31.9105C91.5392 32.3859 90.5471 32.62 89.5341 32.62V33.62C90.7077 33.62 91.8489 33.3474 92.953 32.8095L92.5151 31.9105ZM92.083 11.9542C92.654 11.2473 93.111 10.5981 93.4482 10.0081L92.5799 9.51193C92.2771 10.0419 91.8541 10.6461 91.3051 11.3258L92.083 11.9542ZM93.4482 10.0081C93.807 9.38023 93.9941 8.72215 93.9941 8.04H92.9941C92.9941 8.53118 92.8612 9.01977 92.5799 9.51193L93.4482 10.0081ZM93.9941 8.04C93.9941 7.69076 93.9361 7.33989 93.7445 7.06447C93.53 6.75609 93.2041 6.62 92.8541 6.62V7.62C92.9009 7.62 92.9177 7.62827 92.918 7.62841C92.9184 7.62861 92.9184 7.62862 92.9181 7.62841C92.9179 7.62832 92.9178 7.62823 92.9177 7.62814C92.9176 7.62805 92.9175 7.628 92.9175 7.628C92.9175 7.628 92.9176 7.6281 92.9178 7.62831C92.918 7.62852 92.9184 7.62888 92.9189 7.62942C92.9198 7.63049 92.9215 7.63243 92.9236 7.63553C92.9453 7.66677 92.9941 7.7759 92.9941 8.04H93.9941ZM92.8541 6.62C92.2103 6.62 91.6009 6.95015 91.0349 7.4726C90.4654 7.99826 89.8902 8.76338 89.3048 9.74363L90.1633 10.2564C90.7246 9.31662 91.2427 8.64173 91.7132 8.2074C92.1872 7.76985 92.5645 7.62 92.8541 7.62V6.62ZM89.3022 9.74806C88.143 11.7352 87.2882 14.3166 86.7219 17.4717L87.7062 17.6483C88.2599 14.5634 89.0851 12.1048 90.166 10.2519L89.3022 9.74806ZM87.6325 17.8336C88.5335 16.4556 89.3508 15.3095 90.0845 14.3923L89.3036 13.7677C88.544 14.7171 87.7079 15.891 86.7956 17.2864L87.6325 17.8336ZM90.0791 14.399C90.8533 13.4646 91.5214 12.6496 92.083 11.9542L91.3051 11.3258C90.7468 12.0171 90.0815 12.8287 89.3091 13.761L90.0791 14.399ZM111.969 29.6L112.067 29.1097L111.779 29.052L111.588 29.2763L111.969 29.6ZM97.7694 31.08L97.4096 31.4272L97.4127 31.4304L97.7694 31.08ZM95.6094 25.44L96.1094 25.446L96.1094 25.4358L95.6094 25.44ZM98.6094 17.24L98.2347 16.9089L98.2347 16.9089L98.6094 17.24ZM110.169 14.36L109.979 14.8223L109.981 14.8231L110.169 14.36ZM109.209 16.84V17.34L109.215 17.34L109.209 16.84ZM103.689 19.12L103.333 18.7696L103.333 18.7696L103.689 19.12ZM102.529 27.84L102.146 28.1613L102.152 28.168L102.158 28.1745L102.529 27.84ZM108.769 28.24L109.034 28.664L109.686 28.2565L109.049 27.8258L108.769 28.24ZM105.929 22.68H106.429L106.429 22.6696L105.929 22.68ZM107.289 19.2L106.918 18.8655L106.917 18.866L107.289 19.2ZM110.929 17.6V18.1001L110.938 18.0999L110.929 17.6ZM114.129 18.8L114.525 18.4939L114.525 18.4939L114.129 18.8ZM114.169 26.08L113.709 25.8841L113.413 26.58H114.169V26.08ZM114.409 26.08V26.5801L114.421 26.5799L114.409 26.08ZM117.449 24.84L117.791 25.2048L117.797 25.1993L117.803 25.1936L117.449 24.84ZM118.249 24L117.896 23.6464L117.885 23.6568L117.876 23.6678L118.249 24ZM118.089 28.64L118.41 29.0242L118.416 29.0189L118.089 28.64ZM111.609 24.96L111.256 25.3136L111.758 25.8159L112.061 25.1735L111.609 24.96ZM110.809 21.32L111.263 21.5295L111.263 21.5295L110.809 21.32ZM111.588 29.2763C109.566 31.657 107.167 32.82 104.369 32.82V33.82C107.492 33.82 110.159 32.503 112.35 29.9237L111.588 29.2763ZM104.369 32.82C101.515 32.82 99.4663 32.0942 98.1261 30.7296L97.4127 31.4304C99.0058 33.0525 101.357 33.82 104.369 33.82V32.82ZM98.1292 30.7328C96.7598 29.3137 96.0841 27.5632 96.1093 25.446L95.1094 25.434C95.0813 27.7968 95.8456 29.8063 97.4096 31.4272L98.1292 30.7328ZM96.1094 25.4358C96.0837 22.3809 97.0423 19.7683 98.984 17.5711L98.2347 16.9089C96.1231 19.2984 95.0817 22.1525 95.1094 25.4442L96.1094 25.4358ZM98.984 17.5711C100.908 15.3936 103.421 14.3 106.569 14.3V13.3C103.158 13.3 100.364 14.4998 98.2347 16.9089L98.984 17.5711ZM106.569 14.3C108.028 14.3 109.156 14.4834 109.979 14.8223L110.36 13.8977C109.37 13.49 108.097 13.3 106.569 13.3V14.3ZM109.981 14.8231C110.751 15.1366 111.294 15.4269 111.636 15.6876C111.997 15.9627 112.029 16.1231 112.029 16.16H113.029C113.029 15.6369 112.668 15.2173 112.243 14.8924C111.798 14.5531 111.161 14.2234 110.358 13.8969L109.981 14.8231ZM112.029 16.16C112.029 16.0107 112.137 15.971 112.068 16.0119C112 16.0519 111.856 16.1075 111.599 16.1602C111.094 16.2637 110.302 16.3268 109.203 16.34L109.215 17.34C110.33 17.3265 111.198 17.263 111.8 17.1398C112.096 17.0791 112.367 16.9965 112.576 16.8731C112.783 16.7507 113.029 16.5226 113.029 16.16H112.029ZM109.209 16.34C106.893 16.34 104.923 17.1511 103.333 18.7696L104.046 19.4704C105.443 18.0489 107.153 17.34 109.209 17.34V16.34ZM103.333 18.7696C101.765 20.3658 100.989 22.3894 100.989 24.8H101.989C101.989 22.624 102.68 20.8608 104.046 19.4704L103.333 18.7696ZM100.989 24.8C100.989 26.1034 101.369 27.2344 102.146 28.1613L102.912 27.5187C102.303 26.7923 101.989 25.8966 101.989 24.8H100.989ZM102.158 28.1745C102.991 29.0998 104.137 29.54 105.529 29.54V28.54C104.362 28.54 103.508 28.1802 102.901 27.5055L102.158 28.1745ZM105.529 29.54C106.902 29.54 108.081 29.2598 109.034 28.664L108.504 27.816C107.751 28.2869 106.77 28.54 105.529 28.54V29.54ZM109.049 27.8258C107.303 26.6454 106.429 24.9528 106.429 22.68H105.429C105.429 25.2605 106.449 27.2746 108.489 28.6542L109.049 27.8258ZM106.429 22.6696C106.405 21.5285 106.804 20.4889 107.661 19.534L106.917 18.866C105.908 19.9911 105.4 21.2715 105.429 22.6904L106.429 22.6696ZM107.661 19.5345C108.524 18.5758 109.601 18.1 110.929 18.1V17.1C109.325 17.1 107.975 17.6909 106.918 18.8655L107.661 19.5345ZM110.938 18.0999C112.345 18.0748 113.227 18.4516 113.734 19.1061L114.525 18.4939C113.751 17.495 112.5 17.0719 110.92 17.1001L110.938 18.0999ZM113.734 19.1061C114.291 19.8252 114.589 20.7759 114.589 22H115.589C115.589 20.6107 115.248 19.4282 114.525 18.4939L113.734 19.1061ZM114.589 22C114.589 23.1994 114.302 24.4926 113.709 25.8841L114.629 26.2759C115.263 24.7874 115.589 23.3606 115.589 22H114.589ZM114.169 26.58H114.409V25.58H114.169V26.58ZM114.421 26.5799C115.717 26.5504 116.848 26.0893 117.791 25.2048L117.107 24.4752C116.344 25.1907 115.449 25.5562 114.398 25.5801L114.421 26.5799ZM117.803 25.1936C118.127 24.8692 118.401 24.5818 118.623 24.3322L117.876 23.6678C117.671 23.8982 117.411 24.1708 117.096 24.4864L117.803 25.1936ZM118.603 24.3536C118.788 24.1681 118.909 24.14 118.969 24.14V23.14C118.55 23.14 118.19 23.3519 117.896 23.6464L118.603 24.3536ZM118.969 24.14C118.957 24.14 118.928 24.1334 118.905 24.1157C118.89 24.1037 118.905 24.1074 118.929 24.1653C118.983 24.2914 119.029 24.5402 119.029 24.96H120.029C120.029 24.4998 119.983 24.0886 119.85 23.7747C119.781 23.6126 119.678 23.4513 119.523 23.3293C119.361 23.2016 119.169 23.14 118.969 23.14V24.14ZM119.029 24.96C119.029 26.4854 118.583 27.555 117.763 28.2611L118.416 29.0189C119.516 28.0717 120.029 26.6879 120.029 24.96H119.029ZM117.769 28.2559C116.893 28.9863 115.938 29.34 114.889 29.34V30.34C116.188 30.34 117.366 29.8937 118.409 29.0241L117.769 28.2559ZM114.889 29.34C113.764 29.34 112.825 29.2612 112.067 29.1097L111.871 30.0903C112.714 30.2588 113.722 30.34 114.889 30.34V29.34ZM112.061 25.1735C112.541 24.1581 112.789 23.1521 112.789 22.16H111.789C111.789 22.9812 111.584 23.8419 111.157 24.7465L112.061 25.1735ZM112.789 22.16C112.789 21.6687 112.713 21.214 112.489 20.8684C112.241 20.4852 111.855 20.3 111.409 20.3V21.3C111.551 21.3 111.604 21.3414 111.65 21.4116C111.719 21.5193 111.789 21.7446 111.789 22.16H112.789ZM111.409 20.3C110.873 20.3 110.544 20.7023 110.355 21.1105L111.263 21.5295C111.326 21.3943 111.379 21.3322 111.407 21.3078C111.419 21.2972 111.424 21.2963 111.42 21.2977C111.416 21.2994 111.411 21.3 111.409 21.3V20.3ZM110.355 21.1105C110.171 21.5103 110.069 21.915 110.069 22.32H111.069C111.069 22.085 111.128 21.823 111.263 21.5295L110.355 21.1105ZM110.069 22.32C110.069 23.5064 110.46 24.5177 111.256 25.3136L111.963 24.6064C111.372 24.0156 111.069 23.2669 111.069 22.32H110.069ZM125.088 16.24L124.603 16.3613L124.834 17.2846L125.463 16.5706L125.088 16.24ZM136.288 17.64L136.764 17.487L136.763 17.4834L136.288 17.64ZM134.648 26.12L134.234 25.8401L134.231 25.844L134.648 26.12ZM129.888 30.12L129.714 29.6513L129.888 30.62V30.12ZM136.288 27.96L135.999 27.552L135.996 27.5542L136.288 27.96ZM139.288 25.16L138.889 24.8583L138.888 24.86L139.288 25.16ZM139.608 29.48L139.984 29.81L139.991 29.8021L139.608 29.48ZM132.248 33.32L132.303 33.817L132.31 33.8161L132.248 33.32ZM127.648 33.44L127.735 32.9476L127.735 32.9476L127.648 33.44ZM125.568 32.84L125.34 33.2849L125.345 33.2872L125.568 32.84ZM124.368 28.84V28.34H124.059L123.921 28.6164L124.368 28.84ZM130.168 18.88L129.794 19.2122L129.799 19.2175L129.804 19.2227L130.168 18.88ZM126.168 19.08L125.87 18.6785L126.168 19.08ZM124.168 21.4L123.729 21.1614L123.726 21.1661L124.168 21.4ZM122.848 24.12L123.303 24.3269L123.306 24.3218L122.848 24.12ZM121.888 27.48L121.396 27.3931L121.396 27.3943L121.888 27.48ZM120.408 36.76L119.914 36.6858L119.913 36.6898L120.408 36.76ZM119.408 42.8L118.961 42.5764L118.957 42.5847L118.953 42.5931L119.408 42.8ZM116.648 43.48L116.987 43.1126L116.981 43.1067L116.974 43.1011L116.648 43.48ZM114.968 41.56L115.44 41.3936L115.436 41.3844L114.968 41.56ZM116.048 28.88L115.557 28.7884L116.048 28.88ZM120.608 14.16L120.149 13.963L120.148 13.9648L120.608 14.16ZM124.648 15.2L124.204 15.4302L124.209 15.4392L124.214 15.4481L124.648 15.2ZM125.463 16.5706C126.752 15.1086 128.387 14.38 130.408 14.38V13.38C128.109 13.38 126.198 14.2247 124.713 15.9094L125.463 16.5706ZM130.408 14.38C131.89 14.38 133.052 14.6804 133.929 15.2412C134.799 15.7977 135.431 16.637 135.813 17.7966L136.763 17.4834C136.319 16.1364 135.557 15.0957 134.467 14.3988C133.385 13.7063 132.02 13.38 130.408 13.38V14.38ZM135.812 17.793C136.034 18.4832 136.148 19.2573 136.148 20.12H137.148C137.148 19.1693 137.022 18.2901 136.764 17.487L135.812 17.793ZM136.148 20.12C136.148 22.0304 135.521 23.9346 134.234 25.8401L135.062 26.3999C136.442 24.3587 137.148 22.2629 137.148 20.12H136.148ZM134.231 25.844C132.972 27.7461 131.464 29.0014 129.714 29.6513L130.062 30.5887C132.046 29.8519 133.711 28.4406 135.065 26.396L134.231 25.844ZM129.888 30.62H130.368V29.62H129.888V30.62ZM130.368 30.62C132.445 30.62 134.518 29.8506 136.58 28.3658L135.996 27.5542C134.058 28.9494 132.185 29.62 130.368 29.62V30.62ZM136.577 28.368C137.887 27.44 138.929 26.4721 139.688 25.46L138.888 24.86C138.207 25.7679 137.249 26.6667 135.999 27.552L136.577 28.368ZM139.687 25.4617C140.051 24.9801 140.355 24.64 140.599 24.4252C140.865 24.1904 140.977 24.18 140.968 24.18V23.18C140.586 23.18 140.231 23.4163 139.938 23.6748C139.621 23.9533 139.272 24.3532 138.889 24.8583L139.687 25.4617ZM140.968 24.18C140.959 24.18 140.933 24.1749 140.91 24.1577C140.894 24.1455 140.907 24.1473 140.93 24.2004C140.981 24.3179 141.028 24.5544 141.028 24.96H142.028C142.028 24.5123 141.981 24.1088 141.846 23.7996C141.776 23.6394 141.672 23.4811 141.516 23.3623C141.354 23.2384 141.164 23.18 140.968 23.18V24.18ZM141.028 24.96C141.028 26.3014 140.455 27.698 139.226 29.1579L139.991 29.8021C141.321 28.222 142.028 26.6053 142.028 24.96H141.028ZM139.232 29.1501C137.396 31.2414 135.056 32.4651 132.186 32.8239L132.31 33.8161C135.414 33.4282 137.98 32.0919 139.984 29.8099L139.232 29.1501ZM132.193 32.8231C130.034 33.063 128.564 33.0939 127.735 32.9476L127.561 33.9324C128.546 34.1061 130.143 34.057 132.303 33.8169L132.193 32.8231ZM127.735 32.9476C126.847 32.7909 126.209 32.6012 125.792 32.3928L125.345 33.2872C125.888 33.5588 126.636 33.7691 127.561 33.9324L127.735 32.9476ZM125.796 32.3951C125.337 32.1593 125.02 31.8796 124.817 31.5675C124.616 31.258 124.508 30.8884 124.508 30.44H123.508C123.508 31.0583 123.66 31.622 123.979 32.1125C124.296 32.6004 124.76 32.9873 125.34 33.2849L125.796 32.3951ZM124.508 30.44C124.508 29.9236 124.613 29.4679 124.815 29.0636L123.921 28.6164C123.643 29.1721 123.508 29.7831 123.508 30.44H124.508ZM124.368 29.34C126.623 29.34 128.385 28.4719 129.581 26.7221L128.755 26.1579C127.764 27.6081 126.327 28.34 124.368 28.34V29.34ZM129.581 26.7221C130.743 25.021 131.308 22.9165 131.308 20.44H130.308C130.308 22.7635 129.78 24.659 128.755 26.1579L129.581 26.7221ZM131.308 20.44C131.308 19.7177 131.04 19.0772 130.532 18.5373L129.804 19.2227C130.149 19.5895 130.308 19.989 130.308 20.44H131.308ZM130.542 18.5478C130.008 17.9475 129.292 17.66 128.448 17.66V18.66C129.045 18.66 129.475 18.8525 129.794 19.2122L130.542 18.5478ZM128.448 17.66C127.607 17.66 126.743 18.0307 125.87 18.6785L126.466 19.4815C127.246 18.9026 127.903 18.66 128.448 18.66V17.66ZM125.87 18.6785C124.983 19.3366 124.269 20.1662 123.729 21.1615L124.608 21.6385C125.081 20.7671 125.7 20.0501 126.466 19.4815L125.87 18.6785ZM123.726 21.1661C123.241 22.0829 122.796 23.0002 122.391 23.9182L123.306 24.3218C123.701 23.4264 124.135 22.5305 124.61 21.6339L123.726 21.1661ZM122.393 23.9131C121.97 24.8438 121.64 26.0078 121.396 27.3931L122.381 27.5669C122.616 26.2322 122.926 25.1562 123.303 24.3269L122.393 23.9131ZM121.396 27.3943C120.968 29.8529 120.474 32.9504 119.914 36.6858L120.903 36.8342C121.462 33.1029 121.955 30.0138 122.381 27.5657L121.396 27.3943ZM119.913 36.6898C119.647 38.5686 119.431 40.0074 119.265 41.0083C119.182 41.5093 119.112 41.8963 119.056 42.1722C119.027 42.3105 119.003 42.4162 118.984 42.492C118.961 42.5806 118.952 42.5949 118.961 42.5764L119.855 43.0236C119.898 42.9384 119.929 42.8315 119.951 42.7442C119.977 42.6443 120.005 42.5195 120.035 42.3728C120.096 42.0787 120.168 41.6774 120.251 41.1717C120.419 40.1592 120.636 38.7114 120.903 36.8302L119.913 36.6898ZM118.953 42.5931C118.851 42.817 118.695 43.0291 118.474 43.2284L119.143 43.9716C119.455 43.6909 119.698 43.3696 119.863 43.0069L118.953 42.5931ZM118.474 43.2284C118.277 43.405 118.112 43.46 117.968 43.46V44.46C118.411 44.46 118.806 44.275 119.143 43.9716L118.474 43.2284ZM117.968 43.46C117.543 43.46 117.229 43.3361 116.987 43.1126L116.309 43.8474C116.76 44.2639 117.327 44.46 117.968 44.46V43.46ZM116.974 43.1011C116.504 42.6965 116.143 42.3467 115.884 42.0507C115.619 41.7475 115.488 41.5311 115.44 41.3936L114.497 41.7264C114.608 42.0423 114.837 42.3725 115.132 42.7093C115.433 43.0533 115.832 43.4369 116.322 43.8589L116.974 43.1011ZM115.436 41.3844C115.305 41.0352 115.228 40.5414 115.228 39.88H114.228C114.228 40.6053 114.311 41.2314 114.5 41.7356L115.436 41.3844ZM115.228 39.88C115.228 37.313 115.661 33.682 116.54 28.9716L115.557 28.7884C114.675 33.518 114.228 37.2204 114.228 39.88H115.228ZM116.54 28.9716C117.412 24.2921 118.92 19.4202 121.068 14.3552L120.148 13.9648C117.976 19.0865 116.444 24.0279 115.557 28.7884L116.54 28.9716ZM121.068 14.357C121.197 14.0541 121.362 13.8586 121.545 13.736C121.729 13.6138 121.968 13.54 122.288 13.54V12.54C121.808 12.54 121.367 12.6529 120.991 12.904C120.615 13.1547 120.339 13.5192 120.149 13.963L121.068 14.357ZM122.288 13.54C122.544 13.54 122.832 13.648 123.161 13.9488C123.494 14.2542 123.845 14.738 124.204 15.4302L125.092 14.9698C124.704 14.222 124.289 13.6258 123.836 13.2112C123.378 12.792 122.859 12.54 122.288 12.54V13.54ZM124.214 15.4481C124.411 15.793 124.537 16.0968 124.603 16.3613L125.573 16.1187C125.479 15.7432 125.312 15.3537 125.082 14.9519L124.214 15.4481ZM148.84 28.64L148.827 29.14H148.84V28.64ZM154.88 26.16L155.204 26.5411L155.205 26.5406L154.88 26.16ZM156.64 24.48L157.013 24.8135L157.021 24.8038L156.64 24.48ZM157.64 27.32L158.098 27.5218L158.1 27.517L157.64 27.32ZM155.64 30L155.983 30.364L155.983 30.3638L155.64 30ZM139.72 29.8L139.273 30.0236L139.273 30.0236L139.72 29.8ZM140 21.72L140.47 21.8921L140.471 21.8896L140 21.72ZM142.32 17.52L141.938 17.1982L141.933 17.2034L142.32 17.52ZM145.72 14.8L145.944 15.2473L145.951 15.2435L145.72 14.8ZM153.16 14.88L152.82 15.246L152.826 15.2516L153.16 14.88ZM153.48 20.52L153.087 20.2111L153.086 20.213L153.48 20.52ZM151.28 22.36L151.514 22.802L151.524 22.7965L151.28 22.36ZM148.24 23.68L148.402 24.1532L148.408 24.1509L148.24 23.68ZM145 24.96L144.795 24.504L144.5 24.6367V24.96H145ZM145 25.96H144.5L144.501 25.9739L145 25.96ZM146.2 28L145.971 28.4441L145.971 28.4441L146.2 28ZM145.28 22.2L144.787 22.1185L144.599 23.255L145.558 22.616L145.28 22.2ZM146.84 21.2L146.59 20.7672L146.58 20.7734L146.84 21.2ZM148.16 20.36L148.451 20.7669L148.456 20.7632L148.16 20.36ZM149.4 18.36L149.9 18.3778L149.9 18.3689V18.36H149.4ZM148.84 29.14C151.064 29.14 153.188 28.253 155.204 26.5411L154.557 25.7789C152.679 27.3736 150.776 28.14 148.84 28.14V29.14ZM155.205 26.5406C155.936 25.9179 156.54 25.3419 157.013 24.8134L156.268 24.1466C155.834 24.6314 155.265 25.1755 154.556 25.7794L155.205 26.5406ZM157.021 24.8038C157.237 24.55 157.411 24.3794 157.545 24.2763C157.694 24.1617 157.73 24.18 157.68 24.18V23.18C157.391 23.18 157.133 23.3316 156.935 23.4837C156.723 23.6473 156.497 23.8766 156.259 24.1562L157.021 24.8038ZM157.68 24.18C157.686 24.18 157.669 24.18 157.648 24.166C157.63 24.1541 157.636 24.1496 157.653 24.1836C157.694 24.2658 157.74 24.4522 157.74 24.8H158.74C158.74 24.4011 158.693 24.0275 158.548 23.7364C158.471 23.5837 158.361 23.4392 158.203 23.334C158.042 23.2266 157.861 23.18 157.68 23.18V24.18ZM157.74 24.8C157.74 25.4593 157.563 26.2309 157.181 27.123L158.1 27.517C158.518 26.5425 158.74 25.6341 158.74 24.8H157.74ZM157.183 27.1182C156.816 27.9486 156.196 28.7891 155.297 29.6362L155.983 30.3638C156.952 29.4509 157.664 28.5047 158.098 27.5218L157.183 27.1182ZM155.297 29.636C153.12 31.6869 150.109 32.74 146.2 32.74V33.74C150.292 33.74 153.574 32.6331 155.983 30.364L155.297 29.636ZM146.2 32.74C143.162 32.74 141.208 31.6569 140.168 29.5764L139.273 30.0236C140.526 32.5298 142.892 33.74 146.2 33.74V32.74ZM140.168 29.5764C139.818 28.8775 139.62 27.8213 139.62 26.36H138.62C138.62 27.8854 138.823 29.1225 139.273 30.0236L140.168 29.5764ZM139.62 26.36C139.62 24.9331 139.9 23.4447 140.47 21.8921L139.531 21.5479C138.927 23.1953 138.62 24.8003 138.62 26.36H139.62ZM140.471 21.8896C141.041 20.3089 141.788 18.9603 142.707 17.8366L141.933 17.2034C140.933 18.4263 140.133 19.8777 139.53 21.5504L140.471 21.8896ZM142.703 17.8418C143.649 16.7169 144.729 15.8546 145.944 15.2472L145.497 14.3528C144.151 15.0254 142.965 15.9764 141.938 17.1982L142.703 17.8418ZM145.951 15.2435C147.16 14.6139 148.441 14.3 149.8 14.3V13.3C148.28 13.3 146.841 13.6528 145.489 14.3565L145.951 15.2435ZM149.8 14.3C151.19 14.3 152.17 14.6407 152.82 15.2459L153.501 14.5141C152.604 13.6793 151.344 13.3 149.8 13.3V14.3ZM152.826 15.2516C153.513 15.8701 153.86 16.6646 153.86 17.68H154.86C154.86 16.402 154.408 15.3299 153.495 14.5084L152.826 15.2516ZM153.86 17.68C153.86 18.7386 153.591 19.5697 153.087 20.2111L153.873 20.8289C154.543 19.977 154.86 18.9147 154.86 17.68H153.86ZM153.086 20.213C152.572 20.8734 151.893 21.445 151.036 21.9235L151.524 22.7965C152.481 22.2617 153.269 21.6066 153.875 20.827L153.086 20.213ZM151.046 21.9181C150.164 22.3853 149.173 22.816 148.072 23.2091L148.408 24.1509C149.548 23.744 150.583 23.2947 151.514 22.8019L151.046 21.9181ZM148.079 23.2068C146.97 23.5853 145.876 24.0177 144.795 24.504L145.205 25.416C146.258 24.9423 147.324 24.5214 148.402 24.1532L148.079 23.2068ZM144.5 24.96V25.96H145.5V24.96H144.5ZM144.501 25.9739C144.532 27.0929 145.016 27.9505 145.971 28.4441L146.43 27.5559C145.838 27.2495 145.522 26.7471 145.5 25.9461L144.501 25.9739ZM145.971 28.4441C146.819 28.8831 147.775 29.1114 148.827 29.1398L148.854 28.1402C147.932 28.1153 147.128 27.9169 146.43 27.5559L145.971 28.4441ZM148.16 16.86C147.23 16.86 146.505 17.4165 145.971 18.3143C145.443 19.2003 145.057 20.4824 144.787 22.1185L145.774 22.2815C146.037 20.691 146.397 19.5531 146.83 18.8257C147.256 18.1102 147.704 17.86 148.16 17.86V16.86ZM145.558 22.616C146.113 22.2457 146.628 21.916 147.101 21.6266L146.58 20.7734C146.093 21.0707 145.567 21.4077 145.003 21.784L145.558 22.616ZM147.091 21.6327C147.608 21.3335 148.062 21.0449 148.451 20.7669L147.87 19.9531C147.512 20.2084 147.086 20.4799 146.59 20.7673L147.091 21.6327ZM148.456 20.7632C149.336 20.118 149.866 19.3243 149.9 18.3778L148.901 18.3422C148.881 18.8891 148.585 19.4287 147.865 19.9568L148.456 20.7632ZM149.9 18.36C149.9 17.9177 149.758 17.5061 149.404 17.2208C149.071 16.9521 148.628 16.86 148.16 16.86V17.86C148.52 17.86 148.696 17.9346 148.776 17.9992C148.836 18.0473 148.9 18.1356 148.9 18.36H149.9Z" fill="#EDD0B5" fill-opacity="0.1"/>
</g>
<defs>
<filter id="filter0_b_0_1" x="-1.60001" y="-1.12" width="163.84" height="49.08" filterUnits="userSpaceOnUse" color-interpolation-filters="sRGB">
<feFlood flood-opacity="0" result="BackgroundImageFix"/>
<feGaussianBlur in="BackgroundImageFix" stdDeviation="2"/>
<feComposite in2="SourceAlpha" operator="in" result="effect1_backgroundBlur_0_1"/>
<feBlend mode="normal" in="SourceGraphic" in2="effect1_backgroundBlur_0_1" result="shape"/>
</filter>
</defs>
</svg>
